<?xml version="1.0" encoding="UTF-8"?>
<svg id="Layer_2" data-name="Layer 2" xmlns="http://www.w3.org/2000/svg" xmlns:xlink="http://www.w3.org/1999/xlink" viewBox="0 0 415.47 415.47">
  <defs>
    <style>
      .cls-1 {
        fill: url(#linear-gradient);
      }

      .cls-2, .cls-3 {
        isolation: isolate;
      }

      .cls-4 {
        fill: none;
        stroke: #fff;
        stroke-linecap: round;
        stroke-linejoin: round;
        stroke-width: 28.78px;
      }

      .cls-3 {
        font-family: LoewVariable-Bold, 'Loew Variable';
        font-size: 45.15px;
        font-variation-settings: 'wdth' 100, 'wght' 700, 'ital' 0;
        font-weight: 700;
      }

      .cls-5 {
        letter-spacing: -.01em;
      }

      .cls-6 {
        letter-spacing: -.01em;
      }

      .cls-7 {
        letter-spacing: -.03em;
      }
    </style>
    <linearGradient id="linear-gradient" x1="4.04" y1="-6.81" x2="428.36" y2="440.12" gradientUnits="userSpaceOnUse">
      <stop offset="0" stop-color="#c3d830"/>
      <stop offset="1" stop-color="#9eae3a"/>
    </linearGradient>
  </defs>
  <g id="Layer_2-2" data-name="Layer 2">
    <g>
      <rect class="cls-1" width="415.47" height="415.47"/>
      <g>
        <g class="cls-2">
          <text class="cls-3" transform="translate(77.77 342.16)"><tspan x="0" y="0">C</tspan><tspan class="cls-5" x="33.91" y="0">r</tspan><tspan class="cls-6" x="51.33" y="0">e</tspan><tspan x="77.34" y="0">ati</tspan><tspan class="cls-7" x="135.81" y="0">v</tspan><tspan x="161" y="0">e</tspan></text>
        </g>
        <path class="cls-4" d="M317.99,327.05c19.16-35.42,24.85-81.81,14.9-120.99-6.47-25.48-24.88-49.88-50.7-54.85-17.04-3.28-35.07,2.46-48.79,13.08-13.72,10.63-23.46,25.73-30.07,41.78-4.24,10.29-7.32,21.49-5.6,32.48.82,5.21,2.78,10.36,6.37,14.22,6.18,6.65,17.05,8.32,24.94,3.83,8.26-4.7,12.16-14.4,14.62-23.58,8.78-32.64,6.85-67.91-4.45-99.77-13.8-38.92-52.04-77.48-95.27-51.45-14.41,8.68-24.66,22.93-32.26,37.93-24.06,47.48-24.65,105.79.02,153.12"/>
      </g>
    </g>
  </g>
</svg>